<svg xmlns="http://www.w3.org/2000/svg" data-name="Layer 1" viewBox="172.92 868.3 1114.68 301.47"><path d="M1224.38 1073.79c-11.28-17.02-22.53-34.05-33.72-51.14-.45-.68-.41-2.18.04-2.87 11.48-17.57 23.06-35.09 34.6-52.62 9.16-13.91 18.26-27.87 27.45-41.76 9.46-14.3 18.98-28.56 28.47-42.84 2.08-3.13 4.11-6.29 6.38-9.78H999.67c2.29 3.6 4.46 7.07 6.7 10.5 6.79 10.4 13.58 20.8 20.43 31.16 14.51 21.93 29.08 43.82 43.59 65.75 8.76 13.25 17.44 26.56 26.23 39.78.7 1.05.77 1.42.03 2.53-7.72 11.52-15.3 23.12-22.94 34.69-1.83 2.78-3.73 5.51-5.96 8.8-2.63-5.65-4.89-10.61-7.24-15.52-4.51-9.45-9.08-18.86-13.6-28.31-6.63-13.86-13.22-27.74-19.85-41.6-4.52-9.44-9.08-18.86-13.62-28.3-6.78-14.11-13.55-28.23-20.31-42.34-4.4-9.18-8.75-18.38-13.16-27.55-2.22-4.61-4.52-9.18-6.93-14.07-15.69 32.81-31.22 65.27-46.75 97.73-.22-.05-.44-.11-.66-.16v-93H797.64v83.99h-20.33v-84.13h-2.27c-134.07 0-268.14 0-402.2-.03-1.77 0-2.84.42-3.68 2.11-12.11 24.39-24.29 48.74-36.45 73.11-3.71 7.44-7.41 14.9-11.23 22.58-.41-.52-.61-.71-.72-.93-15.75-31.5-31.5-63-47.2-94.53-.85-1.71-1.8-2.36-3.77-2.36-31.47.07-62.95.05-94.42.06-.73 0-1.46.09-2.45.16 49.5 99 98.84 197.67 148.37 296.74.76-1.1 1.39-1.8 1.8-2.62 32.1-64.2 64.2-128.41 96.2-192.66.97-1.96 1.99-2.46 3.99-2.45 19.72.06 39.44.04 59.16.04.86 0 1.71.09 2.79.15v196.89h99.21V972.13h65.15v197.46h127.9v-84.5h20.33v84.68h489.71c-2.4-3.9-4.41-7.38-6.63-10.72-18.83-28.43-37.7-56.83-56.54-85.25Zm-325.67 69.51h-74.72v-84.53h-72.8v84.52h-75.24V899.23h74.95v83.86h72.9v-83.85h74.91zm26.88-.13v-74.18c0-12.65.02-25.26.06-37.86 0-1.95.54-4.05 1.38-5.82 4.21-8.92 8.52-17.8 12.81-26.69 1.43-2.96 2.86-5.92 4.29-8.89 6.33-13.15 12.64-26.3 18.93-39.47 2.85-5.97 5.6-12 8.44-17.98.28-.59.72-1.11 1.14-1.64.14-.18.28-.35.41-.53.27.34.58.67.86 1.01.14.17.28.34.41.52s.24.36.33.55c8.77 18.26 17.52 36.54 26.26 54.81 4.19 8.75 8.37 17.49 12.55 26.24 6.58 13.77 13.14 27.55 19.73 41.32 4.31 9.01 8.67 17.99 13 26.99 5.2 10.8 10.45 21.57 15.59 32.4 4.48 9.44 8.83 18.95 13.23 28.43.15.32.23.68.27.79zm309.78.3h-63.79c-21.26 0-42.53.01-63.79.04-2.09 0-3.2-.51-4.18-2.58-7.18-15.2-14.58-30.29-21.81-45.47-.37-.78-.16-2.2.33-2.95 5.84-8.96 11.8-17.83 17.7-26.75 4.51-6.82 8.97-13.68 13.45-20.52 5.29-7.79 10.35-15.18 15.27-22.68.43-.66.23-2.18-.25-2.92-7.82-11.92-15.73-23.78-23.63-35.64-13.14-19.72-26.31-39.43-39.41-59.17-4.18-6.3-8.28-12.65-12.46-19.1-1.39-2.15-2.79-4.31-4.21-6.48h189.97c-1.48 2.26-2.95 4.52-4.43 6.79-2.1 3.21-4.2 6.43-6.33 9.63-17.74 26.73-35.5 53.43-53.22 80.16-2.63 3.97-5.24 7.96-7.83 11.96s-5.16 8.01-7.72 12.03c-.22.35-.34.9-.35 1.44 0 .54.1 1.09.32 1.43 13.59 20.68 27.29 41.3 40.93 61.95 3.22 4.88 6.44 9.75 9.66 14.64 3.22 4.88 6.44 9.77 9.67 14.67 6.45 9.8 12.92 19.63 19.45 29.54h-3.34Z" style="fill:#fff;stroke-width:0"/></svg>